<svg xmlns="http://www.w3.org/2000/svg" xmlns:xlink="http://www.w3.org/1999/xlink" width="14" height="11" viewBox="0 0 14 11">
  <defs>
    <style>
      .cls-1 {
        fill: #fcc;
      }

      .cls-2 {
        clip-path: url(#clip-path);
      }

      .cls-3 {
        fill: #aaa;
      }
    </style>
    <clipPath id="clip-path">
      <rect id="矩形_368" data-name="矩形 368" class="cls-1" width="14" height="11" transform="translate(81 785)"/>
    </clipPath>
  </defs>
  <g id="mengban165" class="cls-2" transform="translate(-81 -785)">
    <path id="路径_214" data-name="路径 214" class="cls-3" d="M8.326,240A7.38,7.38,0,0,0,2,243.583a7.39,7.39,0,0,0,12.653,0A7.38,7.38,0,0,0,8.326,240Zm.025,6.055a2.471,2.471,0,1,1,2.471-2.471A2.471,2.471,0,0,1,8.351,246.055Zm0-.828A1.65,1.65,0,1,0,6.7,243.583,1.645,1.645,0,0,0,8.351,245.227Z" transform="translate(80 547)"/>
  </g>
</svg>
